<svg xmlns="http://www.w3.org/2000/svg" version="1.2" baseProfile="tiny-ps" viewBox="0 0 512 512">
  <title>Академический Салон</title>
  <rect width="512" height="512" fill="#F6F1E7"/>
  <circle cx="256" cy="256" r="208" fill="#8C2D18"/>
  <circle cx="256" cy="256" r="196" fill="#B23B22"/>
  <circle cx="256" cy="256" r="172" fill="none" stroke="#C65B41" stroke-width="3"/>
  <path d="M257.5969423210563 311.22168172341907H197.43293954134816V305.1507991660876Q201.63585823488535 304.8394718554552 207.31758165392634 303.63307852675473Q212.99930507296733 302.4266851980542 212.99930507296733 300.636553161918Q212.99930507296733 300.01389854065326 212.8825573314802 299.23558026407227Q212.76580958999307 298.45726198749134 212.2209867963864 297.13412091730373L202.80333564975678 274.25156358582353H164.66574009728978Q163.34259902710215 277.44266851980547 161.7470465601112 281.72341904100074Q160.15149409312022 286.004169562196 158.9840166782488 289.3509381514941Q157.50521195274496 293.7095205003475 157.23280055594162 295.6553161917999Q156.9603891591383 297.60111188325226 156.9603891591383 298.37943015983325Q156.9603891591383 300.87004864489234 160.73523280055593 302.6212647671995Q164.51007644197358 304.3724808895066 173.30507296733845 305.1507991660876V311.22168172341907H128.00694927032663V305.1507991660876Q130.57539958304378 304.9951355107714 133.80542043085478 304.3335649756776Q137.03544127866576 303.6719944405838 138.90340514246006 302.50451702571235Q142.09451007644196 300.636553161918 144.3127171646977 297.91243919388467Q146.53092425295344 295.1883252258513 148.00972897845728 291.4523974982627Q157.03822098679638 269.58165392633776 166.10562890896455 247.63307852675473Q175.17303683113272 225.68450312717167 186.14732453092427 199.22168172341907H201.71369006254344Q216.96872828353025 236.73662265462127 225.6080611535789 258.52953439888813Q234.24739402362752 280.322446143155 240.318276580959 294.64350243224465Q241.33009034051426 296.9784572619875 242.88672689367615 298.8853370396108Q244.44336344683808 300.7922168172342 247.32314107018766 302.50451702571235Q249.50243224461434 303.74982626824186 252.38220986796387 304.3724808895066Q255.26198749131342 304.9951355107714 257.5969423210563 305.1507991660876ZM199.61223071577484 266.546212647672 183.5788742182071 226.54065323141072 167.77901320361363 266.546212647672Z" fill="#F6F1E7"/>
  <path d="M335.3481584433635 314.17929117442674Q323.2063933287005 314.17929117442674 312.6212647671995 310.24878387769286Q302.0361362056984 306.31827658095904 294.1751216122307 298.84642112578183Q286.46977067407926 291.5302293259208 282.03335649756775 280.75052119527453Q277.5969423210563 269.97081306462826 277.5969423210563 257.0507296733843Q277.5969423210563 244.20847810979848 282.07227241139685 233.273106323836Q286.54760250173734 222.33773453787353 294.6421125781793 214.32105628908965Q302.5809589993051 206.46004169562198 313.7109103544128 202.14037526059764Q324.84086170952054 197.82070882557332 337.5274496177902 197.82070882557332Q346.7116052814455 197.82070882557332 354.2612925642808 200.03891591382904Q361.8109798471161 202.2571230020848 367.0257123002085 205.05906879777626L371.85128561501045 200.778318276581H378.6226546212648L379.32314107018766 241.09520500347466H372.4739402362752Q366.6365531619181 222.64906184850594 358.46421125781796 214.0097289784573Q350.2918693537179 205.37039610840864 338.53926337734543 205.37039610840864Q323.9068797776234 205.37039610840864 316.27936066713 218.25156358582353Q308.6518415566366 231.1327310632384 308.6518415566366 254.40444753300906Q308.6518415566366 267.55802640722726 311.2592077831828 276.85892981236975Q313.866574009729 286.1598332175122 318.0694927032662 291.8415566365532Q322.58373870743577 297.7567755385685 328.7324530924253 300.5198054204309Q334.8811674774149 303.2828353022933 342.3530229325921 303.2828353022933Q353.2494788047255 303.2828353022933 361.77206393328703 297.367616400278Q370.29464906184853 291.4523974982627 377.2995135510772 279.4662960389159L383.9930507296734 283.5135510771369Q380.6462821403753 290.3627519110494 376.36553161918005 295.77206393328703Q372.0847810979848 301.1813759555247 366.48088950660184 305.07296733842946Q360.3321751216123 309.35371785962474 352.89923558026413 311.76650451702574Q345.46629603891597 314.17929117442674 335.3481584433635 314.17929117442674Z" fill="#F6F1E7"/>
</svg>
